<?xml version="1.0" encoding="UTF-8"?>
<svg id="Capa_2" data-name="Capa 2" xmlns="http://www.w3.org/2000/svg" viewBox="0 0 102.49 71.67">
  <defs>
    <style>
      .cls-1 {
        fill: #5f249f;
      }
    </style>
  </defs>
  <g id="Capa_1-2" data-name="Capa 1">
    <g>
      <path class="cls-1" d="M93.39,51.8c-8.01,9.04-20.99,16.13-36.39,18.78-7.62,1.31-15.04,1.4-21.88.45-2.49-.35-4.91-.83-7.22-1.45-1.9-.5-3.73-1.09-5.49-1.77-2.41-.92-4.68-2-6.78-3.22C7.62,59.96,2.07,53.24.47,45.15c-.04-.2-.08-.4-.11-.6C.1,43.05-.02,41.56,0,40.06c0,0,0-.02,0-.03,0-.08,0-.17,0-.25.03-1.34.17-2.67.41-3.99.35-1.68.91-3.28,1.65-4.78,1.89-3.83,4.97-6.97,8.76-8.93,1.44-.7,2.95-1.25,4.48-1.68,0,0,0,0,.02,0,9.56-2.66,20.14-.36,22.89,2.77-1.28.92-2.48,1.9-3.58,2.92-1.68,1.55-3.14,3.19-4.35,4.88-2.06,2.87-3.4,5.87-3.87,8.77-.44,2.66-.15,5.24.97,7.56.52,1.09,1.21,2.07,2.03,2.94l2.24-2.34,1.29-1.35c4.19-4.36,9.97-6.84,16.02-6.85h7.62s-1.1,1.13-1.1,1.13l-7.23,7.54c-.23.2-.44.41-.63.65-.67.84-1.07,1.91-1.07,3.07,0,2.46,1.81,4.5,4.18,4.86h0c16.51,2.44,37.64.17,42.65-5.15Z"/>
      <path class="cls-1" d="M102.44,30.84c-.23-3.45-1.03-6.53-2.24-9.26-2.79-6.34-7.76-10.85-12.85-13.95-2.14-1.31-4.29-2.36-6.31-3.21-1.83-.76-3.75-1.44-5.74-2.01-2.16-.63-4.42-1.13-6.75-1.52-7.28-1.21-15.29-1.22-23.52.2C31.23,3.46,19.38,9.4,11.3,17.11c6.5-4.92,26.81-6.56,42.5-3.86.05,0,.11,0,.16.02.25.03.49.08.73.14,2.08.57,3.61,2.48,3.61,4.75,0,1.25-.47,2.39-1.24,3.26-.08.1-.17.19-.26.28l-.15.16s0,0,0,0l-8.71,9.08h7.62c6.05-.02,11.84-2.5,16.02-6.86l.8-.83,2.72-2.83c.81.86,1.48,1.83,2,2.91,1.12,2.32,1.41,4.9.97,7.56-.48,2.9-1.82,5.9-3.87,8.77-1.48,2.06-3.33,4.06-5.5,5.9-.71.6-1.45,1.19-2.23,1.75,2.93,2.12,9.31,3.87,15.91,3.7.98-.02,1.97-.09,2.96-.21,0,0,0,0,.01,0,6.73-.97,12.37-5.28,15.21-11.19,1.14-2.37,1.83-5.01,1.95-7.79-.01-.33-.03-.66-.05-.98ZM62.76,15.48s-.09-.03-.13-.05c.06,0,.11,0,.17,0l-.03.04Z"/>
    </g>
  </g>
</svg>