<?xml version="1.0" encoding="UTF-8"?>
<svg id="Capa_2" data-name="Capa 2" xmlns="http://www.w3.org/2000/svg" viewBox="0 0 529.51 127.75">
  <defs>
    <style>
      .cls-1 {
        fill: #fff;
      }
    </style>
  </defs>
  <g id="Capa_1-2" data-name="Capa 1">
    <g>
      <g>
        <path class="cls-1" d="M231.79,24.25s.04-.06.09-.16c.44-.72.7-1.51.78-2.3.27-1.61.16-3.89-1.45-6.47-3-.47-5.14.32-6.52,1.2-.7.38-1.32.92-1.81,1.61-.07.09-.11.15-.11.15h0c-1.65,2.49-.96,5.84,1.53,7.49,2.49,1.65,5.84.96,7.49-1.53h0Z"/>
        <g>
          <g>
            <path class="cls-1" d="M207.12,15.46c-2.76,0-5.27,2.07-5.66,4.83l-3.08,21.94h-26.92l3.08-21.94c.38-2.76-1.49-4.83-4.25-4.83s-5.17,2.07-5.56,4.83l-7.51,53.44c-.39,2.76,1.44,4.83,4.2,4.83s5.22-2.07,5.61-4.83l3.05-21.69h26.92l-3.05,21.69c-.39,2.76,1.44,4.83,4.2,4.83s5.22-2.07,5.61-4.83l7.51-53.44c.38-2.76-1.4-4.83-4.16-4.83Z"/>
            <path class="cls-1" d="M229.19,33.51c-.76-.94-1.82-1.43-3.25-1.43-1.33,0-2.53.5-3.7,1.43-1.12.94-1.77,2.07-1.97,3.5l-5.15,36.69c-.19,1.33.15,2.46.99,3.45.8.94,1.92,1.43,3.25,1.43,2.76,0,5.18-2.12,5.57-4.88l5.15-36.69c.19-1.33-.09-2.51-.88-3.5Z"/>
            <path class="cls-1" d="M282.16,15.46c-2.77,0-5.17,2.07-5.56,4.83l-2.28,16.22c-3.73-2.91-8.06-4.39-13.04-4.39-6.36,0-12.58,2.51-17.58,6.85-4.95,4.34-8.34,10.2-9.24,16.67-.9,6.36.84,12.23,4.57,16.57,3.78,4.34,9.33,6.9,15.65,6.9,4.98,0,9.94-1.58,14.34-4.49.12,2.32,1.86,3.94,4.27,3.94,2.76,0,5.22-2.07,5.61-4.83l7.51-53.44c.39-2.76-1.49-4.83-4.25-4.83ZM271.71,55.1l-.16,1.13c-.65,3.55-2.58,6.8-5.44,9.22-2.76,2.42-6.35,3.8-10.05,3.8s-6.89-1.48-9.05-3.99c-2.16-2.51-3.21-5.92-2.69-9.61.52-3.7,2.48-7.1,5.4-9.66,2.87-2.52,6.47-3.94,10.17-3.94s6.9,1.38,8.99,3.75c2.17,2.41,3.19,5.72,2.83,9.32Z"/>
            <path class="cls-1" d="M319.41,32.13h-.2c-5.32,0-10.43,1.62-15.38,4.88.19-1.33-.09-2.51-.89-3.5-.75-.94-1.82-1.43-3.25-1.43s-2.63.5-3.7,1.43c-1.13.99-1.79,2.17-1.97,3.5l-5.16,36.69c-.19,1.33.15,2.46,1,3.45.8.94,1.92,1.43,3.25,1.43,2.76,0,5.18-2.12,5.56-4.88l2.38-16.91c.57-4.09,2.67-7.79,5.82-10.55,3.1-2.76,7.02-4.34,10.96-4.34h.2c2.81,0,5.38-2.12,5.76-4.88.41-2.91-1.24-4.88-4.39-4.88Z"/>
            <path class="cls-1" d="M407.43,38.63c-.78-2.12-2.53-3.75-5.26-4.98-2.46-1.08-5.19-1.63-8.16-1.63-4.19,0-8.47,1.33-11.75,3.65-3.44,2.42-5.81,5.92-6.37,9.91-.51,3.6.7,6.56,3.59,8.87,2.34,1.97,5.53,3.45,9.98,5.08l2.55.84c2.03.64,3.37,1.58,4.15,2.76.45.64.59,1.43.45,2.42-.22,1.53-1.13,2.76-2.68,3.6-1.56.88-3.3,1.33-5.12,1.33-4.1,0-6.28-1.28-8-4.44-1.01-1.58-2.49-2.32-4.07-2.32-1.72,0-3.27.79-4.25,2.17-.48.59-.78,1.33-.9,2.17-.13.94-.01,1.83.36,2.71,1.09,2.76,3.21,4.88,6.4,6.36,2.72,1.33,5.84,1.97,9.29,1.97,4.68,0,9.03-1.48,12.4-4.04,3.37-2.56,5.58-6.02,6.12-9.91.54-3.8-.52-6.86-3.15-9.17-2.24-1.97-5.31-3.25-9.7-4.68-2.69-.84-4.37-1.53-5.63-2.37-1.48-1.04-2.1-2.22-1.9-3.65.42-3.01,3.51-4.63,7.7-4.63,1.53,0,2.95.39,4.26,1.23.28.15.85.59,1.7,1.23l1.76,1.48c.46.24.99.34,1.58.34,1.23,0,2.39-.5,3.41-1.48.85-.79,1.32-1.67,1.46-2.66.11-.74.01-1.48-.24-2.17Z"/>
            <path class="cls-1" d="M457.75,33.56c-.72-.84-1.98-1.39-3.31-1.39-2.76,0-5.18,2.12-5.57,4.88l-2.68,19.03c-.51,3.65-2.03,6.71-4.54,9.12-2.45,2.37-5.45,3.65-8.75,3.65s-5.68-1.28-7.19-3.6c-1.59-2.37-2.08-5.52-1.54-9.42l2.66-18.93c.38-2.76-1.44-4.83-4.2-4.83s-5.22,2.07-5.61,4.83l-2.64,18.83c-.92,6.51.2,12.23,3.02,16.37,2.82,4.14,7.32,6.51,12.99,6.51,4.58,0,9.21-2.02,13.41-5.57l-.1.69c-.38,2.76,1.33,4.93,4.09,4.93,1.33,0,2.58-.49,3.76-1.48,1.12-.94,1.77-2.07,1.97-3.45l5.15-36.68c.2-1.38-.13-2.56-.94-3.5Z"/>
            <path class="cls-1" d="M526.54,37.3c-2.49-3.35-6.41-5.23-11.3-5.23s-10.61,2.17-14.91,5.77c-2.49-3.7-6.58-5.77-11.71-5.77-3.5,0-6.95,1.38-10.29,4.09-.07-2.37-1.74-4.09-4.16-4.09-1.33,0-2.53.5-3.7,1.43-1.12.94-1.77,2.07-1.97,3.5l-5.15,36.69c-.19,1.33.15,2.46,1,3.45.8.94,1.92,1.43,3.25,1.43,2.76,0,5.18-2.12,5.57-4.88l3.27-23.23c.07-.15.09-.29.06-.39-.04-.1-.03-.15.03-.2l.04-.3c.33-2.02,1.74-3.99,3.72-5.42,1.92-1.38,4.21-2.22,6.38-2.22s3.89.74,5.07,2.17c1.18,1.43,1.65,3.3,1.39,5.52l-3.39,24.11c-.19,1.33.15,2.47,1,3.4.91.94,1.97,1.43,3.3,1.43,2.72,0,5.13-2.07,5.51-4.83l3.39-24.11c.45-2.12,1.81-4.04,3.72-5.42,1.92-1.38,4.26-2.27,6.39-2.27s3.89.74,5.16,2.22c1.13,1.43,1.59,3.45,1.32,5.67l-3.36,23.91c-.19,1.33.15,2.47,1,3.4.91.94,1.97,1.43,3.3,1.43,2.71,0,5.12-2.07,5.51-4.83l3.34-23.77c.69-4.93-.31-9.37-2.76-12.67Z"/>
          </g>
          <path class="cls-1" d="M365.88,42.39c-1-3.13-2.49-6.44-4.64-9.89-12.22-1.92-20.93,1.3-26.52,4.89-2.85,1.55-5.37,3.76-7.36,6.56-.3.38-.45.61-.45.61-2.39,3.62-3.58,7.68-3.64,11.72,0,.13,0,.26,0,.39,0,7.13,3.46,14.13,9.86,18.36,2.08,1.38,4.31,2.35,6.6,2.94,8.84,2.3,18.54-1.11,23.87-9.16h0s.14-.23.37-.64c1.24-2.02,2.13-4.18,2.66-6.38.24-.98.4-1.98.5-2.98.75-4.4.8-10.02-1.24-16.42ZM353.87,64.85c-2.75,2.41-6.26,3.87-9.85,3.87s-6.59-1.47-8.66-3.87c-2.06-2.41-3.07-5.66-2.57-9.2.47-3.28,2.1-6.31,4.57-8.69-.75,1.58-1.17,3.35-1.17,5.22,0,6.75,5.47,12.21,12.21,12.21,3.54,0,6.73-1.5,8.96-3.91-.87,1.63-2.05,3.11-3.48,4.37Z"/>
        </g>
      </g>
      <g>
        <path class="cls-1" d="M122.88,68.16c-10.54,11.9-27.62,21.23-47.89,24.71-10.02,1.72-19.79,1.84-28.79.59-3.28-.45-6.46-1.09-9.5-1.9-2.5-.66-4.91-1.44-7.22-2.32-3.17-1.21-6.16-2.63-8.93-4.24-10.53-6.11-17.83-14.95-19.93-25.59-.06-.26-.1-.52-.15-.79-.34-1.97-.49-3.94-.47-5.91,0-.01,0-.03,0-.04,0-.11,0-.22,0-.32.04-1.76.22-3.51.54-5.25.46-2.21,1.2-4.32,2.17-6.29,2.49-5.04,6.54-9.17,11.53-11.76,1.9-.92,3.88-1.65,5.9-2.21,0,0,.01,0,.02,0,12.58-3.5,26.5-.48,30.12,3.64-1.69,1.22-3.26,2.5-4.71,3.84-2.21,2.04-4.13,4.2-5.72,6.42-2.71,3.78-4.47,7.72-5.09,11.54-.57,3.5-.2,6.89,1.27,9.94.69,1.43,1.59,2.72,2.67,3.86l2.95-3.08,1.7-1.77c5.51-5.74,13.12-9,21.08-9.01l10.03-.02-1.44,1.5-9.52,9.92c-.3.26-.58.55-.82.85-.88,1.11-1.41,2.51-1.41,4.04,0,3.24,2.38,5.93,5.5,6.4h0c21.73,3.21,49.53.22,56.11-6.77Z"/>
        <path class="cls-1" d="M134.79,40.58c-.31-4.54-1.36-8.59-2.95-12.19-3.68-8.35-10.21-14.27-16.9-18.36-2.81-1.72-5.64-3.11-8.3-4.22-2.4-1.01-4.93-1.89-7.56-2.64-2.85-.82-5.81-1.49-8.88-2-9.58-1.59-20.12-1.6-30.95.26C41.1,4.55,25.5,12.36,14.87,22.51c8.55-6.47,35.28-8.63,55.93-5.08.07,0,.14,0,.21.02.33.04.65.1.96.19,2.74.75,4.75,3.26,4.75,6.24,0,1.65-.62,3.15-1.63,4.29-.11.13-.23.25-.35.37l-.2.21s0,0,0,0l-11.46,11.95,10.02-.02c7.96-.01,15.57-3.27,21.08-9.01l1.05-1.09,3.58-3.73c1.06,1.14,1.95,2.41,2.64,3.83,1.47,3.05,1.85,6.45,1.27,9.95-.63,3.82-2.39,7.77-5.1,11.54-1.95,2.71-4.38,5.34-7.24,7.76-.93.79-1.91,1.56-2.94,2.31,3.85,2.79,12.25,5.09,20.94,4.87,1.29-.03,2.6-.12,3.89-.27,0,0,0,0,.01,0,8.85-1.28,16.28-6.95,20.01-14.72,1.5-3.12,2.4-6.59,2.56-10.24-.01-.44-.04-.87-.07-1.29ZM82.58,20.36c-.06-.02-.12-.04-.18-.06.07,0,.15,0,.22.01l-.04.05Z"/>
      </g>
      <g>
        <path class="cls-1" d="M196.26,127.35h-12.71v-19.63h1.76v18.18h10.95v1.45Z"/>
        <path class="cls-1" d="M208.97,124.62l-.74,1.59c-1.05,1.05-2.53,1.54-4.18,1.54-2.79,0-4.78-1.45-4.78-4.18,0-3.44,3.27-5.12,8.7-5.12h.97v-.54c0-.68,0-1.25-.06-1.85-.14-1.74-1.19-2.73-3.36-2.73s-3.56,1.11-3.78,3.44h-1.85c.2-2.96,2.45-4.86,5.63-4.86s4.89,1.51,5.12,3.98c.06.65.06,1.28.06,1.99v5.26c0,1.34.09,2.42.28,4.21h-1.76l-.26-2.73ZM208.95,121.55v-1.74c-4.24-.28-7.74.71-7.74,3.61,0,1.91,1.19,2.93,3.38,2.93,2.62,0,4.35-1.99,4.35-4.81Z"/>
        <path class="cls-1" d="M222.4,127.35h-2.19l-5.77-15.05h1.93l5.01,13.74,4.95-13.74h1.88l-5.8,15.05Z"/>
        <path class="cls-1" d="M240.66,124.62l-.74,1.59c-1.05,1.05-2.53,1.54-4.18,1.54-2.79,0-4.78-1.45-4.78-4.18,0-3.44,3.27-5.12,8.7-5.12h.97v-.54c0-.68,0-1.25-.06-1.85-.14-1.74-1.19-2.73-3.36-2.73s-3.56,1.11-3.78,3.44h-1.85c.2-2.96,2.45-4.86,5.63-4.86s4.89,1.51,5.12,3.98c.06.65.06,1.28.06,1.99v5.26c0,1.34.09,2.42.28,4.21h-1.76l-.26-2.73ZM240.63,121.55v-1.74c-4.24-.28-7.74.71-7.74,3.61,0,1.91,1.19,2.93,3.38,2.93,2.62,0,4.35-1.99,4.35-4.81Z"/>
        <path class="cls-1" d="M260.17,118.93v8.42h-1.76v-8.22c0-.85,0-1.51-.06-2.28-.2-2.05-1.34-3.5-3.87-3.5s-4.69,1.82-4.69,6.51v7.48h-1.76v-15.05h1.76v2.9l.8-1.62c1.22-1.22,2.56-1.68,4.24-1.68,3.19,0,5.01,1.74,5.29,4.49.06.77.06,1.31.06,2.53Z"/>
        <path class="cls-1" d="M278.15,127.35h-1.76v-2.79l-1,1.65c-1.05,1.05-2.53,1.54-4.27,1.54-4.21,0-6.71-3.27-6.71-7.74,0-5.46,3.36-8.11,7.17-8.11,1.48,0,2.93.45,3.87,1.37l.94,1.62v-8.45h1.76v20.91ZM276.38,120.18v-1.14c0-4.27-2.59-5.72-4.81-5.72-3.01,0-5.23,2.39-5.23,6.46,0,3.61,1.74,6.57,5.03,6.57,2.67,0,5.01-1.62,5.01-6.17Z"/>
        <path class="cls-1" d="M295.87,120.35h-11.41c.2,4.44,2.45,6,4.89,6,2.1,0,3.98-1.28,4.52-3.75h1.85c-.71,3.5-3.47,5.15-6.48,5.15-3.75,0-6.68-2.62-6.68-7.91,0-4.84,3.01-7.94,6.97-7.94,4.21,0,6.4,3.36,6.4,7.51,0,.2,0,.48-.06.94ZM284.46,118.96h9.67c-.2-3.87-2.13-5.63-4.66-5.63s-4.75,1.88-5.01,5.63Z"/>
        <path class="cls-1" d="M306.85,112.08v1.39c-2.62-.2-4.55,1.42-4.55,5.43v8.45h-1.76v-15.05h1.76v2.73l1.08-1.93c.68-.71,1.62-1.14,2.59-1.14.31,0,.63.03.88.11Z"/>
        <path class="cls-1" d="M310.57,127.35v-15.05h1.76v15.05h-1.76ZM310.72,110.85l1.73-3.13h1.71l-2.25,3.13h-1.19Z"/>
        <path class="cls-1" d="M326.73,124.62l-.74,1.59c-1.05,1.05-2.53,1.54-4.18,1.54-2.79,0-4.78-1.45-4.78-4.18,0-3.44,3.27-5.12,8.7-5.12h.97v-.54c0-.68,0-1.25-.06-1.85-.14-1.74-1.19-2.73-3.36-2.73s-3.56,1.11-3.78,3.44h-1.85c.2-2.96,2.45-4.86,5.63-4.86s4.89,1.51,5.12,3.98c.06.65.06,1.28.06,1.99v5.26c0,1.34.09,2.42.28,4.21h-1.76l-.26-2.73ZM326.7,121.55v-1.74c-4.24-.28-7.74.71-7.74,3.61,0,1.91,1.19,2.93,3.38,2.93,2.62,0,4.35-1.99,4.35-4.81Z"/>
        <path class="cls-1" d="M350.08,124.62l-.74,1.59c-1.05,1.05-2.53,1.54-4.18,1.54-2.79,0-4.78-1.45-4.78-4.18,0-3.44,3.27-5.12,8.7-5.12h.97v-.54c0-.68,0-1.25-.06-1.85-.14-1.74-1.19-2.73-3.36-2.73s-3.56,1.11-3.78,3.44h-1.85c.2-2.96,2.45-4.86,5.63-4.86s4.89,1.51,5.12,3.98c.06.65.06,1.28.06,1.99v5.26c0,1.34.09,2.42.28,4.21h-1.76l-.26-2.73ZM350.05,121.55v-1.74c-4.24-.28-7.74.71-7.74,3.61,0,1.91,1.19,2.93,3.38,2.93,2.62,0,4.35-1.99,4.35-4.81Z"/>
        <path class="cls-1" d="M369.37,127.35h-1.76v-2.9l-.82,1.68c-1.19,1.17-2.56,1.62-4.21,1.62-3.07,0-4.89-1.74-5.23-4.12-.09-.77-.11-1.31-.11-2.53v-8.79h1.76v8.39c0,.71.03,1.48.11,2.25.23,1.99,1.54,3.38,3.87,3.38,2.5,0,4.64-1.82,4.64-6.54v-7.48h1.76v15.05Z"/>
        <path class="cls-1" d="M377.27,123.23c0,.63,0,.94.03,1.34.11,1.45.74,1.82,2.76,1.56v1.31c-.6.11-1.22.14-1.82.14-1.68,0-2.56-.74-2.7-2.39-.03-.51-.03-1.08-.03-1.93v-9.47h-1.93v-1.36h1.93v-3.33h1.76v3.33h2.87v1.36h-2.87v9.44Z"/>
        <path class="cls-1" d="M397.67,119.84c0,4.41-2.53,7.91-7.31,7.91s-7.31-3.5-7.31-7.91,2.53-7.94,7.31-7.94,7.31,3.5,7.31,7.94ZM395.73,119.84c0-4.1-2.25-6.51-5.38-6.51s-5.38,2.42-5.38,6.51,2.25,6.51,5.38,6.51,5.38-2.42,5.38-6.51Z"/>
        <path class="cls-1" d="M411.66,116.52h-1.85c-.43-2.08-1.65-3.19-3.67-3.19-1.82,0-3.04,1.02-3.04,2.67,0,1.74,1.42,2.42,3.58,2.96,3.47.85,5.12,2.1,5.12,4.64,0,2.67-2.28,4.15-5.38,4.15s-5.35-1.42-5.77-4.84h1.82c.43,2.56,2.05,3.44,4.07,3.44,1.91,0,3.47-.88,3.47-2.62s-1.08-2.5-4.01-3.21c-2.59-.68-4.72-1.74-4.72-4.32s2.05-4.29,5.01-4.29c3.27,0,5.03,1.96,5.38,4.61Z"/>
        <path class="cls-1" d="M428.33,120.35h-11.41c.2,4.44,2.45,6,4.89,6,2.1,0,3.98-1.28,4.52-3.75h1.85c-.71,3.5-3.47,5.15-6.49,5.15-3.75,0-6.68-2.62-6.68-7.91,0-4.84,3.02-7.94,6.97-7.94,4.21,0,6.4,3.36,6.4,7.51,0,.2,0,.48-.06.94ZM416.92,118.96h9.67c-.2-3.87-2.13-5.63-4.66-5.63s-4.75,1.88-5.01,5.63Z"/>
        <path class="cls-1" d="M439.31,112.08v1.39c-2.62-.2-4.55,1.42-4.55,5.43v8.45h-1.76v-15.05h1.76v2.73l1.08-1.93c.68-.71,1.62-1.14,2.59-1.14.31,0,.63.03.88.11Z"/>
        <path class="cls-1" d="M449.09,127.35h-2.19l-5.77-15.05h1.93l5.01,13.74,4.95-13.74h1.88l-5.8,15.05Z"/>
        <path class="cls-1" d="M460.67,109.06c0,.65-.51,1.19-1.19,1.19s-1.19-.54-1.19-1.19.54-1.19,1.19-1.19,1.19.51,1.19,1.19ZM458.59,127.35v-15.05h1.76v15.05h-1.76Z"/>
        <path class="cls-1" d="M477.99,117.23h-1.85c-.51-2.53-2.02-3.93-4.44-3.93s-5.01,2.05-5.01,6.4c0,4.64,2.33,6.66,4.86,6.66,2.22,0,3.93-1.28,4.47-3.7h1.82c-.68,3.33-3.16,5.09-6.4,5.09-3.75,0-6.68-2.59-6.68-7.91,0-4.98,3.21-7.94,7-7.94,3.47,0,5.77,2.13,6.23,5.32Z"/>
        <path class="cls-1" d="M484.42,109.06c0,.65-.51,1.19-1.19,1.19s-1.19-.54-1.19-1.19.54-1.19,1.19-1.19,1.19.51,1.19,1.19ZM482.34,127.35v-15.05h1.76v15.05h-1.76Z"/>
        <path class="cls-1" d="M503.13,119.84c0,4.41-2.53,7.91-7.31,7.91s-7.31-3.5-7.31-7.91,2.53-7.94,7.31-7.94,7.31,3.5,7.31,7.94ZM501.2,119.84c0-4.1-2.25-6.51-5.38-6.51s-5.38,2.42-5.38,6.51,2.25,6.51,5.38,6.51,5.38-2.42,5.38-6.51Z"/>
      </g>
    </g>
  </g>
</svg>