<?xml version="1.0" encoding="UTF-8"?>
<svg id="Capa_2" data-name="Capa 2" xmlns="http://www.w3.org/2000/svg" viewBox="0 0 76.3 61.75">
  <defs>
    <style>
      .cls-1 {
        fill: #fff;
      }
    </style>
  </defs>
  <g id="Capa_1-2" data-name="Capa 1">
    <g>
      <path class="cls-1" d="M43.2,43.8c-.62,0-1.19-.4-1.38-1.02l-1.91-6.25c-.23-.76.2-1.57.96-1.8.76-.23,1.57.2,1.8.96l1.49,4.87,24.01-7.35c.51-.16.93-.5,1.18-.98.25-.47.3-1.02.15-1.53l-8.08-26.39c-.16-.51-.5-.93-.98-1.18-.47-.25-1.02-.3-1.53-.15l-17.89,5.48c-.76.23-1.57-.2-1.8-.96-.23-.76.2-1.57.96-1.8L58.07.22c1.25-.38,2.57-.26,3.73.36,1.15.61,2,1.64,2.38,2.89l8.08,26.39c.38,1.25.26,2.57-.36,3.73-.61,1.15-1.64,2-2.89,2.38l-25.39,7.77c-.14.04-.28.06-.42.06Z"/>
      <path class="cls-1" d="M16.79,51.73c-.79,0-1.57-.19-2.29-.57-1.15-.61-2-1.64-2.38-2.89L4.04,21.88c-.79-2.58.67-5.32,3.25-6.11l25.39-7.77c.37-.11.76-.07,1.1.11.34.18.59.49.7.85l2.12,6.93c.23.76-.2,1.57-.96,1.8-.76.23-1.57-.2-1.8-.96l-1.7-5.55-24.01,7.35c-1.06.32-1.65,1.45-1.33,2.51l8.08,26.39c.16.51.5.93.98,1.18s1.02.3,1.53.15l17.73-5.43c.76-.23,1.57.2,1.8.96.23.76-.2,1.57-.96,1.8l-17.73,5.43c-.47.14-.96.22-1.44.22Z"/>
      <path class="cls-1" d="M74.85,61.75H1.44c-.8,0-1.44-.65-1.44-1.44s.65-1.44,1.44-1.44h73.41c.8,0,1.44.65,1.44,1.44s-.65,1.44-1.44,1.44Z"/>
      <path class="cls-1" d="M40.88,38.27c-.35-.18-.59-.47-.71-.86l-.41-1.35c-1.42.22-2.75.12-4-.29-1.26-.41-2.25-1.03-2.99-1.86-.23-.25-.39-.51-.48-.8-.05-.16-.08-.34-.08-.55.02-.37.18-.73.51-1.08.22-.22.43-.36.65-.43.48-.15,1.08.03,1.79.52.68.59,1.45.96,2.31,1.12.86.16,1.77.09,2.74-.21.49-.15.94-.36,1.37-.63.43-.27.78-.59,1.06-.96.3-.38.5-.79.61-1.23s.09-.9-.05-1.36c-.27-.89-.9-1.44-1.88-1.67-.33-.08-.69-.12-1.06-.13s-.83,0-1.37.04l-.46.02c-2.28.25-4.13.1-5.55-.46-1.67-.64-2.75-1.78-3.26-3.43-.23-.76-.3-1.51-.22-2.26.09-.75.3-1.47.65-2.16.33-.66.78-1.26,1.35-1.8s1.21-.99,1.93-1.36l-.37-1.22c-.12-.38-.08-.75.12-1.12.18-.34.47-.57.87-.7.37-.11.72-.08,1.06.1.35.2.58.49.7.87l.37,1.22c1.1-.16,2.14-.11,3.13.13.98.25,1.83.69,2.55,1.34.18.16.3.35.37.57.02.07.04.18.06.32.01.31-.06.61-.21.9-.08.16-.21.3-.38.43-.17.13-.35.22-.56.29-.39.12-.74.12-1.05,0-.84-.38-1.53-.61-2.08-.68-.69-.07-1.44.02-2.27.27-.49.15-.93.35-1.33.61s-.73.56-.98.9c-.27.34-.46.72-.54,1.11-.09.4-.07.81.06,1.22.14.47.38.82.72,1.06.34.24.77.4,1.3.49.43.07.93.1,1.47.08.55-.01,1.26-.06,2.12-.13.94-.04,1.8-.01,2.6.07.8.08,1.52.26,2.17.52,1.57.62,2.6,1.76,3.11,3.41.24.79.33,1.58.26,2.38-.07.79-.28,1.55-.63,2.26-.35.72-.82,1.37-1.42,1.95s-1.29,1.07-2.07,1.46l.42,1.38c.12.39.09.76-.09,1.1-.18.34-.46.57-.84.69s-.76.09-1.11-.09Z"/>
    </g>
  </g>
</svg>