<?xml version="1.0" encoding="UTF-8"?>
<svg id="Capa_2" data-name="Capa 2" xmlns="http://www.w3.org/2000/svg" viewBox="0 0 75.57 82.26">
  <defs>
    <style>
      .cls-1 {
        fill: #fff;
      }
    </style>
  </defs>
  <g id="Capa_1-2" data-name="Capa 1">
    <g>
      <path class="cls-1" d="M20.98,82.26h-12.87c-1.97,0-3.66-1.41-4.02-3.34l-2.17-11.79c-.14-.77.37-1.5,1.13-1.64.77-.14,1.5.37,1.64,1.13l2.17,11.79c.11.6.63,1.03,1.24,1.03h12.87c.61,0,1.13-.44,1.24-1.03l4.02-21.85c.09-.51-.13-.87-.27-1.04-.14-.17-.46-.45-.97-.45H4.08c-.52,0-.83.29-.97.45s-.37.53-.27,1.04l.46,2.51c.14.77-.37,1.5-1.13,1.64-.77.14-1.5-.37-1.64-1.13l-.46-2.51c-.22-1.2.1-2.42.88-3.35.78-.93,1.92-1.47,3.14-1.47h20.92c1.22,0,2.36.54,3.14,1.47.78.93,1.1,2.16.88,3.35l-4.02,21.86c-.36,1.94-2.05,3.34-4.02,3.34Z"/>
      <path class="cls-1" d="M69.15,71.21c-.52,0-1.02-.29-1.26-.78l-.48-.96c-.16-.31-.44-.55-.77-.65-2.55-.76-11.13-3.22-14.27-3.22-2.68,0-9.31,1.79-12.79,2.79h21.9c.78,0,1.41.63,1.41,1.41s-.63,1.41-1.41,1.41h-25.89c-.49,0-.94-.25-1.2-.67-.26-.42-.28-.93-.06-1.37l.48-.96c.5-1.01,1.41-1.77,2.49-2.09,3.39-1,11.64-3.34,15.07-3.34s11.68,2.33,15.07,3.34c1.08.32,1.99,1.08,2.49,2.09l.48.96c.35.7.06,1.54-.63,1.89-.2.1-.42.15-.63.15Z"/>
      <path class="cls-1" d="M23.89,49.77s-.09,0-.13,0c-.77-.07-1.34-.76-1.27-1.53,0-.05.25-3.32-1.78-5.53-1.33-1.45-3.4-2.19-6.15-2.19-.78,0-1.41-.63-1.41-1.41s.63-1.41,1.41-1.41c3.59,0,6.36,1.05,8.25,3.12,2.88,3.16,2.51,7.49,2.49,7.67-.07.73-.68,1.28-1.4,1.28Z"/>
      <path class="cls-1" d="M5.19,55.06h0c-.78,0-1.41-.64-1.41-1.42l.02-5.22c-.04-.63-.2-4.63,2.5-7.59,1.89-2.07,4.66-3.12,8.25-3.12.78,0,1.41.63,1.41,1.41s-.63,1.41-1.41,1.41c-2.75,0-4.82.74-6.15,2.19-2.04,2.22-1.79,5.5-1.78,5.53,0,.04,0,.09,0,.13l-.02,5.28c0,.78-.63,1.41-1.41,1.41Z"/>
      <path class="cls-1" d="M52.37,65.6c-.78,0-1.41-.63-1.41-1.41V1.41c0-.78.63-1.41,1.41-1.41s1.41.63,1.41,1.41v62.78c0,.78-.63,1.41-1.41,1.41Z"/>
      <path class="cls-1" d="M47.85,82.17c-.34,0-.68-.09-.98-.26l-2.91-1.65c-.39-.22-.86-.22-1.25,0l-2.91,1.65c-.61.34-1.36.34-1.97,0l-2.91-1.65c-.39-.22-.86-.22-1.25,0l-1.54.88c-.77.44-1.71.32-2.35-.28-.64-.61-.81-1.54-.41-2.33l2.66-5.34c.35-.7,1.19-.98,1.89-.63.7.35.98,1.19.63,1.89l-1.51,3.03c1.08-.35,2.27-.23,3.27.34l2.5,1.42,2.5-1.42c1.24-.71,2.79-.71,4.04,0l2.5,1.42,2.5-1.42c1.25-.71,2.79-.71,4.04,0l2.5,1.42,2.5-1.42c1.25-.71,2.79-.71,4.04,0l2.5,1.42,2.5-1.42c1-.57,2.2-.68,3.27-.33l-1.51-3.03c-.35-.7-.06-1.54.63-1.89.7-.35,1.54-.06,1.89.63l2.66,5.34c.39.79.23,1.73-.41,2.33-.64.61-1.58.72-2.35.28l-1.54-.88c-.39-.22-.86-.22-1.25,0l-2.91,1.65c-.61.34-1.36.34-1.97,0l-2.91-1.65c-.39-.22-.86-.22-1.25,0l-2.91,1.65c-.61.34-1.36.34-1.97,0l-2.91-1.65c-.39-.22-.86-.22-1.25,0l-2.91,1.65c-.3.17-.64.26-.98.26ZM47.44,79.46s0,0,0,0h0ZM48.26,79.46h0s0,0,0,0Z"/>
      <path class="cls-1" d="M24.35,76.06H4.74c-.78,0-1.41-.63-1.41-1.41s.63-1.41,1.41-1.41h19.61c.78,0,1.41.63,1.41,1.41s-.63,1.41-1.41,1.41Z"/>
    </g>
  </g>
</svg>