<?xml version="1.0" encoding="UTF-8"?>
<svg id="Capa_2" data-name="Capa 2" xmlns="http://www.w3.org/2000/svg" viewBox="0 0 76.1 57.95">
  <defs>
    <style>
      .cls-1 {
        fill: #fff;
      }
    </style>
  </defs>
  <g id="Capa_1-2" data-name="Capa 1">
    <g>
      <path class="cls-1" d="M37.63,57.95c-.75,0-1.35-.61-1.35-1.35s.61-1.35,1.35-1.35c4.05,0,7.34-3.29,7.34-7.34s-3.29-7.34-7.34-7.34c-.03,0-.05,0-.08,0-3.19.02-6.19,1.28-8.45,3.54-.04.04-.07.07-.11.1-1.14,1.08-2.62,1.68-4.2,1.68-1.63,0-3.16-.63-4.31-1.78-2.37-2.37-2.37-6.24,0-8.61,9.3-9.3,24.1-9.55,33.7-.57,1.35,1.35,3.5,1.34,4.82.02s1.31-3.46,0-4.78c-12.06-11.5-31.49-11.26-43.3.55-2.37,2.37-6.24,2.37-8.61,0-1.15-1.15-1.78-2.68-1.78-4.31s.63-3.16,1.78-4.31c8.05-8.05,18.76-12.53,30.17-12.63,11.36-.12,22.12,4.17,30.28,12.01.03.02.05.05.08.07,1.32,1.32,3.46,1.32,4.78,0,.64-.64.99-1.49.99-2.39s-.34-1.72-.95-2.35c0,0-.01-.01-.02-.02C52.95-2.11,21.5-1.87,2.31,17.31c-.53.53-1.39.53-1.91,0-.53-.53-.53-1.39,0-1.91C10.23,5.57,23.32.1,37.26,0c.13,0,.25,0,.38,0,13.77,0,26.75,5.25,36.62,14.8.02.02.04.04.06.06,1.15,1.15,1.78,2.68,1.78,4.31s-.63,3.16-1.78,4.3c-2.35,2.35-6.17,2.37-8.55.06-.02-.01-.03-.03-.05-.04-15.77-15.21-41.21-14.97-56.71.53-.64.64-.99,1.49-.99,2.39s.35,1.75.99,2.39c1.32,1.32,3.46,1.32,4.78,0,6.27-6.27,14.6-9.78,23.46-9.87,8.84-.08,17.24,3.21,23.64,9.3,2.4,2.4,2.4,6.26.03,8.63-2.38,2.38-6.25,2.38-8.62.01-8.5-7.94-21.65-7.72-29.91.54-1.32,1.32-1.32,3.46,0,4.78.64.64,1.49.99,2.39.99s1.75-.35,2.39-.99c.03-.03.07-.06.1-.09,2.78-2.73,6.45-4.24,10.35-4.24.03,0,.06,0,.09,0,5.5.05,9.95,4.54,9.95,10.04s-4.51,10.05-10.05,10.05Z"/>
      <path class="cls-1" d="M37.63,57.95c-3.36,0-6.09-2.73-6.09-6.09s2.73-6.09,6.09-6.09,6.09,2.73,6.09,6.09-2.73,6.09-6.09,6.09ZM37.63,48.48c-1.86,0-3.38,1.52-3.38,3.38s1.52,3.38,3.38,3.38,3.38-1.52,3.38-3.38-1.52-3.38-3.38-3.38Z"/>
    </g>
  </g>
</svg>