<?xml version="1.0" encoding="UTF-8"?>
<svg id="Capa_2" data-name="Capa 2" xmlns="http://www.w3.org/2000/svg" viewBox="0 0 61.77 73.4">
  <defs>
    <style>
      .cls-1 {
        fill: #5f249f;
      }
    </style>
  </defs>
  <g id="Capa_1-2" data-name="Capa 1">
    <g>
      <path class="cls-1" d="M5.66,73.4c-.26,0-.52-.07-.75-.23-.62-.41-.79-1.25-.38-1.88L49.18,4.03c.41-.62,1.25-.79,1.88-.38.62.41.79,1.25.38,1.88L6.79,72.8c-.26.39-.69.61-1.13.61Z"/>
      <path class="cls-1" d="M16.93,32.53c-.29,0-.58-.09-.83-.28-.56-.43-1.1-.9-1.58-1.4-2.5-2.52-3.87-5.7-3.87-8.97,0-2.28.67-4.55,1.95-6.57.3-.48.66-.97,1.08-1.48.48-.58,1.33-.66,1.91-.18.58.48.66,1.33.18,1.91-.35.42-.63.81-.88,1.2-1.02,1.61-1.53,3.33-1.53,5.12,0,2.59,1.07,5.03,3.09,7.07.4.41.85.8,1.31,1.16.59.46.7,1.31.25,1.9-.27.35-.67.53-1.07.53Z"/>
      <path class="cls-1" d="M42.46,17.97c-.47,0-.93-.25-1.18-.69-.35-.62-.75-1.2-1.19-1.73-.48-.57-.41-1.43.17-1.91.57-.48,1.43-.41,1.91.17.55.66,1.05,1.38,1.48,2.15.37.65.13,1.48-.52,1.84-.21.12-.44.17-.66.17Z"/>
      <path class="cls-1" d="M21.02,11.64c-.54,0-1.05-.33-1.26-.86-.27-.7.07-1.48.77-1.75,2.32-.9,4.81-1.36,7.39-1.36s5.07.46,7.39,1.36c.7.27,1.04,1.06.77,1.75-.27.7-1.06,1.04-1.75.77-2.01-.78-4.16-1.18-6.41-1.18s-4.41.4-6.41,1.18c-.16.06-.33.09-.49.09Z"/>
      <path class="cls-1" d="M27.92,36.08c-.16,0-.32,0-.48-.01-.75-.03-1.33-.66-1.3-1.4.03-.75.66-1.34,1.4-1.3.26,0,.51,0,.76,0,.69-.02,1.36-.12,2.01-.3.72-.19,1.47.23,1.66.96.19.72-.23,1.46-.96,1.66-.84.23-1.72.36-2.61.39-.16,0-.31.01-.48.01Z"/>
      <path class="cls-1" d="M27.49,36.07s-.03,0-.05,0c-5.2-.2-9.28-3.61-9.28-7.77s4.38-7.78,9.77-7.78c4.26,0,7.99,2.16,9.29,5.37.28.69-.05,1.48-.75,1.76-.69.28-1.48-.05-1.76-.75-.88-2.17-3.67-3.68-6.78-3.68-3.89,0-7.06,2.28-7.06,5.08,0,2.65,2.99,4.92,6.68,5.06.75.03,1.33.66,1.3,1.4-.03.73-.63,1.3-1.35,1.3Z"/>
      <path class="cls-1" d="M13.74,17.39c-.18,0-.37-.04-.55-.12-3.25-1.45-5.36-4.69-5.36-8.25C7.83,4.05,11.88,0,16.85,0s9.02,4.05,9.02,9.02c0,.11,0,.23,0,.34-.02.75-.68,1.34-1.4,1.31-.75-.02-1.33-.65-1.31-1.4,0-.08,0-.17,0-.25,0-3.48-2.83-6.32-6.32-6.32s-6.32,2.83-6.32,6.32c0,2.49,1.47,4.76,3.75,5.77.68.3.99,1.1.69,1.79-.22.5-.72.8-1.24.8Z"/>
      <path class="cls-1" d="M42.16,17.45c-.53,0-1.03-.31-1.25-.83-.29-.69.04-1.48.72-1.77.27-.11.53-.25.79-.4.64-.39,1.47-.19,1.86.45.39.64.19,1.47-.45,1.86-.37.23-.76.43-1.15.59-.17.07-.35.11-.52.11Z"/>
      <path class="cls-1" d="M46.77,11.47c-.06,0-.12,0-.18-.01-.74-.1-1.26-.78-1.16-1.52.04-.31.06-.62.06-.91,0-3.48-2.83-6.32-6.32-6.32s-6.32,2.83-6.32,6.32c0,.09,0,.18,0,.26.04.75-.54,1.38-1.29,1.42-.74.03-1.38-.54-1.42-1.29,0-.13,0-.27,0-.4,0-4.98,4.05-9.02,9.02-9.02s9.02,4.05,9.02,9.02c0,.41-.03.84-.09,1.27-.09.68-.67,1.17-1.34,1.17Z"/>
      <path class="cls-1" d="M8.28,69.46c-.31,0-.61-.1-.87-.31-.42-.35-.84-.73-1.24-1.13-2.1-2.1-3.61-4.58-4.23-6.99-.69-2.65-.25-4.94,1.24-6.43,1.95-1.95,5.37-2.06,8.92-.29,1.34.66,2.62,1.55,3.82,2.64.55.5.6,1.36.1,1.91-.5.55-1.36.6-1.91.1-1.02-.92-2.1-1.67-3.22-2.22-2.44-1.22-4.71-1.3-5.79-.22-1.06,1.06-.79,2.85-.53,3.83.5,1.94,1.76,3.98,3.52,5.75.34.34.7.67,1.06.97.57.48.65,1.33.17,1.91-.27.32-.65.49-1.04.49Z"/>
      <path class="cls-1" d="M40.48,72.56c-1.65,0-3.06-.53-4.09-1.56-1.49-1.49-1.93-3.77-1.24-6.43.62-2.4,2.13-4.88,4.23-6.98,2.1-2.1,4.58-3.6,6.98-4.23,2.65-.69,4.94-.25,6.43,1.24h0c1.49,1.49,1.93,3.77,1.24,6.43-.62,2.4-2.13,4.88-4.23,6.98-2.1,2.1-4.58,3.6-6.98,4.23-.82.21-1.6.32-2.34.32ZM48.71,55.75c-.62,0-1.22.12-1.66.23-1.94.5-3.98,1.76-5.75,3.52-1.77,1.77-3.02,3.81-3.52,5.75-.25.98-.52,2.77.53,3.83,1.06,1.06,2.85.79,3.83.53,1.94-.5,3.98-1.76,5.75-3.52,1.77-1.77,3.02-3.81,3.52-5.75.25-.98.52-2.77-.53-3.83h0c-.58-.58-1.4-.76-2.17-.76Z"/>
      <path class="cls-1" d="M11.49,56.88c-.52,0-1.02-.3-1.24-.81-1.4-3.21-2.11-6.68-2.11-10.3,0-3.06.51-6.03,1.53-8.83.25-.7,1.03-1.07,1.73-.81.7.25,1.07,1.03.81,1.73-.91,2.5-1.36,5.16-1.36,7.91,0,3.24.63,6.34,1.89,9.21.3.69-.01,1.48-.7,1.78-.18.08-.36.11-.54.11Z"/>
      <path class="cls-1" d="M44.31,56.97c-.18,0-.37-.04-.55-.12-.68-.3-.99-1.1-.69-1.79,1.28-2.9,1.92-6.02,1.92-9.3,0-2.71-.45-5.34-1.33-7.82-.25-.7.12-1.48.82-1.73.7-.25,1.48.12,1.73.82.99,2.77,1.49,5.71,1.49,8.73,0,3.65-.72,7.15-2.15,10.39-.22.51-.72.81-1.24.81Z"/>
      <path class="cls-1" d="M4.62,51.37c-.92,0-1.79-.25-2.5-.75-1.13-.79-2.4-2.53-2.06-6.36.84-9.57,13.78-14.74,14.33-14.96.7-.27,1.48.07,1.75.77.27.7-.07,1.48-.76,1.75-.12.05-11.93,4.78-12.62,12.67-.17,1.95.16,3.37.92,3.9.54.38,1.39.36,2.28-.06,1.2-.56,2.1-1.67,2.19-2.69.06-.75.71-1.3,1.47-1.23.74.06,1.3.72,1.23,1.46-.17,2-1.64,3.93-3.74,4.91-.83.39-1.68.58-2.48.58Z"/>
      <path class="cls-1" d="M27.92,68.63c-2.48,0-5.84-.32-7.73-1.85-.54-.44-.66-1.22-.28-1.8l22.52-33.93c.38-.58,1.14-.78,1.76-.45,4.07,2.14,10.99,6.76,11.6,13.66.34,3.82-.94,5.57-2.06,6.36-1.34.94-3.21,1.01-4.99.17-2.1-.98-3.57-2.91-3.74-4.91-.06-.75.49-1.4,1.23-1.46.74-.06,1.4.49,1.46,1.23.09,1.02.99,2.13,2.19,2.69.89.42,1.75.44,2.29.06.76-.53,1.09-1.95.92-3.9-.45-5.09-5.48-8.85-9.09-10.91l-.11.17-20.91,31.5c1.17.43,2.91.67,4.94.67,2.77,0,5.42-.76,7.86-2.27.64-.39,1.47-.19,1.86.44.39.64.19,1.47-.44,1.86-2.84,1.75-6.05,2.67-9.28,2.67Z"/>
      <path class="cls-1" d="M28,31.38c-2.43,0-4.44-1.97-4.5-4.4-.02-.75.57-1.37,1.32-1.39.74-.02,1.37.58,1.38,1.32.02.97.83,1.75,1.79,1.75s1.77-.79,1.79-1.75c.02-.75.65-1.34,1.38-1.32.75.02,1.34.64,1.32,1.39-.06,2.42-2.07,4.4-4.5,4.4Z"/>
      <path class="cls-1" d="M23.98,19.74c-.75,0-1.35-.61-1.35-1.35v-3.7c0-.75.61-1.35,1.35-1.35s1.35.61,1.35,1.35v3.7c0,.75-.61,1.35-1.35,1.35Z"/>
      <path class="cls-1" d="M31.51,19.74c-.75,0-1.35-.61-1.35-1.35v-3.7c0-.75.61-1.35,1.35-1.35s1.35.61,1.35,1.35v3.7c0,.75-.61,1.35-1.35,1.35Z"/>
      <path class="cls-1" d="M27.97,25.41c-.35,0-.69-.13-.96-.4l-2-2c-.53-.53-.53-1.39,0-1.92.53-.53,1.39-.53,1.91,0l1.05,1.05,1-1c.53-.53,1.39-.53,1.91,0,.53.53.53,1.39,0,1.91l-1.96,1.96c-.26.26-.61.4-.96.4Z"/>
      <path class="cls-1" d="M50.99,29.5c-1.93,0-2.86-.91-3.29-1.67-1.66-2.91,1.48-8.48,2.13-9.57.24-.41.69-.66,1.16-.66s.92.25,1.16.66c.65,1.09,3.78,6.66,2.13,9.57-.43.76-1.36,1.67-3.29,1.67ZM50.99,21.92c-.85,1.94-1.35,3.85-.94,4.57.11.2.43.3.94.3s.82-.1.94-.3c.41-.72-.08-2.63-.94-4.57Z"/>
      <path class="cls-1" d="M58,19.08c-1.93,0-2.86-.91-3.29-1.67-1.66-2.91,1.48-8.48,2.13-9.57.24-.41.69-.66,1.16-.66s.92.25,1.16.66c.65,1.09,3.78,6.66,2.13,9.57-.43.76-1.36,1.67-3.29,1.67ZM58,11.49c-.85,1.94-1.35,3.85-.94,4.57.11.2.43.3.94.3s.82-.1.94-.3c.41-.72-.08-2.63-.94-4.57Z"/>
    </g>
  </g>
</svg>