<?xml version="1.0" encoding="UTF-8"?>
<svg id="Capa_2" data-name="Capa 2" xmlns="http://www.w3.org/2000/svg" viewBox="0 0 71.13 82.62">
  <defs>
    <style>
      .cls-1 {
        fill: #5f249f;
      }
    </style>
  </defs>
  <g id="Capa_1-2" data-name="Capa 1">
    <g>
      <path class="cls-1" d="M22.25,76.32c-3.3,0-6.26-2.4-7.55-6.1-3.3-9.5-4.98-19.61-4.98-30.06,0-5.5.48-11,1.41-16.32.11-.65.68-1.12,1.33-1.12h43.24c.66,0,1.22.47,1.33,1.12.94,5.32,1.41,10.82,1.41,16.32,0,10.45-1.67,20.56-4.98,30.06-1.29,3.71-4.25,6.1-7.55,6.1h-23.68ZM13.62,25.42c-.79,4.82-1.18,9.77-1.18,14.73,0,10.14,1.62,19.96,4.83,29.17.9,2.6,2.86,4.28,4.99,4.28h23.68c2.13,0,4.09-1.68,4.99-4.28,3.2-9.21,4.83-19.02,4.83-29.17,0-4.96-.4-9.91-1.18-14.73H13.62Z"/>
      <path class="cls-1" d="M63.86,55.26c-.39,0-.77-.17-1.04-.49-.48-.57-.4-1.43.18-1.91,3.4-2.83,5.43-7.44,5.43-12.34,0-8.32-5.73-15.08-12.77-15.08-.75,0-1.35-.61-1.35-1.35s.61-1.35,1.35-1.35c8.54,0,15.48,7.98,15.48,17.79,0,5.7-2.4,11.09-6.41,14.43-.25.21-.56.31-.86.31Z"/>
      <path class="cls-1" d="M44.06,18.94c-.35,0-.69-.13-.96-.4-.53-.53-.53-1.39,0-1.92,2.46-2.46,2.46-6.46,0-8.92-1.7-1.69-2.64-3.95-2.64-6.35,0-.75.6-1.36,1.35-1.36h0c.75,0,1.35.6,1.35,1.35,0,1.68.66,3.26,1.85,4.44,3.51,3.52,3.51,9.24,0,12.75-.26.26-.61.4-.96.4Z"/>
      <path class="cls-1" d="M24.13,18.94c-.35,0-.69-.13-.96-.4-.53-.53-.53-1.39,0-1.92,2.46-2.46,2.46-6.46,0-8.92-1.7-1.69-2.64-3.95-2.64-6.35,0-.75.6-1.36,1.35-1.36h0c.75,0,1.35.6,1.35,1.35,0,1.68.66,3.26,1.85,4.44,3.51,3.52,3.51,9.24,0,12.75-.26.26-.61.4-.96.4Z"/>
      <path class="cls-1" d="M34.09,18.94c-.35,0-.69-.13-.96-.4-.53-.53-.53-1.39,0-1.92,2.46-2.46,2.46-6.46,0-8.92-1.7-1.69-2.64-3.95-2.64-6.35,0-.75.6-1.36,1.35-1.36h0c.75,0,1.35.6,1.35,1.35,0,1.68.66,3.26,1.85,4.44,3.51,3.52,3.51,9.24,0,12.75-.26.26-.61.4-.96.4Z"/>
      <path class="cls-1" d="M62.72,82.62H5.46c-.18,0-.37-.04-.54-.11l-4.11-1.77c-.69-.3-1-1.09-.71-1.78.3-.69,1.09-1,1.78-.71l3.85,1.66h56.7l3.85-1.66c.69-.29,1.48.02,1.78.71.3.69-.02,1.48-.71,1.78l-4.11,1.77c-.17.07-.35.11-.54.11Z"/>
    </g>
  </g>
</svg>