<?xml version="1.0" encoding="UTF-8"?>
<svg id="Capa_2" data-name="Capa 2" xmlns="http://www.w3.org/2000/svg" viewBox="0 0 73.86 82.43">
  <defs>
    <style>
      .cls-1 {
        fill: #5f249f;
      }
    </style>
  </defs>
  <g id="Capa_1-2" data-name="Capa 1">
    <g>
      <path class="cls-1" d="M71.51,25.41c-.77,0-1.4-.63-1.4-1.4,0-.36.14-.69.36-.94-1.18-3.35-4.12-6.52-7.93-6.52-.77,0-1.4-.63-1.4-1.4s.63-1.4,1.4-1.4c5.72,0,9.94,5.11,11,9.93.09.39,0,.8-.23,1.12-.23.32-.59.53-.99.57-.24.03-.5.04-.82.04Z"/>
      <path class="cls-1" d="M47.32,82.43c-.06,0-.13,0-.19-.01-.51-.07-.95-.42-1.12-.91-6.84-19.02-30.96-30.56-31.2-30.67-.59-.28-.91-.93-.77-1.57.14-.64.71-1.09,1.36-1.09.34,0,.69,0,1.03,0,15.23.2,26.69,6.71,33.61,12.14,4.8,3.76,7.36,6.93,7.46,7.06.39.49.41,1.17.05,1.68l-9.09,12.78c-.26.37-.69.59-1.14.59ZM21.49,51.3c7.43,4.44,20.36,13.67,26.18,26.84l6.97-9.8c-1.02-1.13-3.17-3.35-6.32-5.82-5.79-4.53-14.9-9.86-26.83-11.22Z"/>
      <path class="cls-1" d="M49.18,62.81c-.31,0-.61-.1-.86-.3-6.59-5.16-17.48-11.35-31.94-11.54-.77-.01-1.39-.64-1.38-1.42.01-.76.63-1.38,1.4-1.38h.02c13.68.18,24.32,5.45,31.36,10.45v-12.05c0-5.71,4.65-10.36,10.36-10.36.03,0,.11,0,.13,0,1.12.06,6.85.22,10.22-2.97,1.71-1.61,2.57-3.9,2.57-6.79,0-.36-.02-.72-.06-1.07-4.96-.24-9.05-4.02-9.75-8.87l-4.99-.08c-4.06,0-7.77-2.41-9.44-6.14l-.07-.16c-1.96-4.47-6.37-7.36-11.24-7.36-2.98,0-5.85,1.08-8.08,3.05-2.66,2.32-4.18,5.68-4.18,9.21,0,1.71.34,3.36,1.02,4.92.06.12.14.29.21.47.23.51.44,1.04.63,1.57.73,2.08,1.09,4.28,1.09,6.52,0,3.11-.7,6.08-2.07,8.84-.43.98-.98,1.89-1.63,2.71l-.03.04c-2.41,3.03-6,4.77-9.88,4.77-.29,0-.58-.01-.87-.03-6.58-.44-11.74-5.96-11.74-12.57,0-1.19.17-2.38.5-3.53.02-.07.04-.15.07-.24,1.4-4.7,3.07-10.28,4.44-14.88l1.17-3.93s.02-.07.04-.11c0-.02,0-.03.01-.05h0s.02-.07.03-.11c.09-.31.18-.61.27-.9,0-.01.02-.07.02-.08v-.02s.03-.09.05-.14C8.39,3.4,12.91.14,18.13,0c.01,0,.03,0,.04,0,.75,0,1.38.6,1.4,1.36.02.77-.59,1.41-1.36,1.43-3.97.1-7.55,2.67-8.94,6.4-.01.05-.03.1-.05.15-.09.3-.18.61-.28.93h0s0,.02,0,.03c0,0,0,.02,0,.03-.02.12-.06.24-.11.35l-1.12,3.76c-1.38,4.61-3.05,10.21-4.45,14.91,0,.03-.02.05-.03.08l-.02.08c-.27.92-.4,1.85-.4,2.78,0,5.14,4.01,9.44,9.14,9.78,3.26.22,6.38-1.16,8.39-3.72.01-.01.02-.03.04-.04.5-.63.92-1.34,1.25-2.1,0-.02.02-.04.03-.06,1.19-2.37,1.79-4.94,1.79-7.62,0-1.93-.32-3.81-.94-5.6-.16-.46-.34-.9-.55-1.37-.07-.17-.13-.3-.19-.43-.86-1.96-1.28-3.99-1.28-6.08,0-4.34,1.87-8.46,5.13-11.31,2.74-2.41,6.27-3.75,9.93-3.75,5.98,0,11.39,3.54,13.8,9.02l.07.15c1.22,2.72,3.93,4.49,6.91,4.49l6.28.1c.76.01,1.37.62,1.37,1.38.04,4.12,3.44,7.48,7.56,7.48.18,0,.36,0,.53-.02.7-.07,1.35.39,1.51,1.08.21.9.31,1.84.31,2.79,0,3.69-1.16,6.66-3.45,8.82-4.1,3.88-10.45,3.83-12.3,3.73h0c-4.15,0-7.54,3.39-7.54,7.56v14.84c0,.53-.3,1.02-.79,1.26-.19.09-.4.14-.61.14ZM6.54,8.58s0,0,0,0c0,0,0,0,0,0ZM6.58,8.41s0,0,0,0h0Z"/>
      <path class="cls-1" d="M31.19,17.27c-.21,0-.43-.05-.63-.15-.69-.35-.96-1.19-.61-1.88,1.28-2.51,3.82-4.07,6.63-4.07s5.32,1.54,6.61,4.02c.35.68.09,1.53-.6,1.88-.69.35-1.53.09-1.88-.6-.8-1.55-2.38-2.51-4.13-2.51s-3.35.97-4.14,2.54c-.25.48-.74.76-1.25.76Z"/>
    </g>
  </g>
</svg>