<?xml version="1.0" encoding="UTF-8"?>
<svg id="Capa_2" data-name="Capa 2" xmlns="http://www.w3.org/2000/svg" viewBox="0 0 76.64 82.43">
  <defs>
    <style>
      .cls-1 {
        fill: #5f249f;
      }
    </style>
  </defs>
  <g id="Capa_1-2" data-name="Capa 1">
    <g>
      <path class="cls-1" d="M65.31,61.63c-.45,0-.9-.22-1.17-.62-.43-.65-.26-1.52.38-1.96,6.87-4.62,9.32-13.19,9.34-13.27.19-.69.86-1.12,1.57-1.02.7.11,1.22.73,1.2,1.44-.01.34-.28,8.48-1.5,14.31-.16.76-.91,1.25-1.67,1.09-.76-.16-1.25-.91-1.09-1.67.4-1.91.69-4.12.9-6.2-1.64,2.64-3.97,5.5-7.19,7.66-.24.16-.51.24-.79.24Z"/>
      <path class="cls-1" d="M57.57,64.94c-.65,0-1.24-.45-1.38-1.12l-.36-1.7c-.17-.81.03-1.65.55-2.3s1.3-1.02,2.13-1.02h15.05c.78,0,1.41.63,1.41,1.41s-.63,1.41-1.41,1.41h-14.96l.34,1.61c.16.76-.32,1.51-1.09,1.67-.1.02-.2.03-.29.03Z"/>
      <path class="cls-1" d="M69.74,82.43h-7.38c-1.29,0-2.42-.92-2.69-2.18l-1.9-8.95c-.16-.76.32-1.51,1.09-1.67.76-.16,1.51.33,1.67,1.09l1.88,8.89h7.26l3.81-17.98c-.74-.05-1.32-.66-1.32-1.41s.63-1.41,1.41-1.41c.83,0,1.61.37,2.13,1.02s.73,1.48.55,2.3l-3.84,18.13c-.27,1.26-1.4,2.18-2.69,2.18ZM73.58,61.63h0,0Z"/>
      <path class="cls-1" d="M47.01,56.21H2.28c-.78,0-1.41-.63-1.41-1.41s.63-1.41,1.41-1.41h43.23c-.64-4.66-4.6-7.02-11.79-7.02H9.84c-1.25,0-2.42-.56-3.2-1.54-.77-.97-1.06-2.21-.79-3.42L12.42,4.53s.01-.06.02-.09c.64-2.61,3.04-4.44,5.85-4.44h12.71c2.81,0,5.21,1.83,5.85,4.44,0,.03.01.05.02.08l6.2,34.13c.14.77-.37,1.5-1.14,1.64-.77.14-1.5-.37-1.64-1.14l-6.19-34.09c-.34-1.33-1.61-2.25-3.1-2.25h-12.71c-1.47,0-2.76.94-3.1,2.25l-6.57,36.86s0,.05-.01.07c-.09.38,0,.77.24,1.07.24.3.6.48.99.48h23.88c9.48,0,14.7,4,14.7,11.25,0,.78-.63,1.41-1.41,1.41Z"/>
      <path class="cls-1" d="M59.25,61.63c-.59,0-1.14-.37-1.34-.96-2.22-6.54-5.83-11.71-5.87-11.76-.37-.53-.34-1.24.08-1.73.42-.49,1.11-.64,1.69-.35.23.11,5.66,2.8,9.74,7.84.49.61.4,1.49-.21,1.98-.61.49-1.49.4-1.98-.21-1.2-1.49-2.55-2.76-3.83-3.79,1.03,2,2.15,4.43,3.05,7.11.25.74-.14,1.54-.88,1.79-.15.05-.3.07-.45.07Z"/>
      <path class="cls-1" d="M72.36,53.93c-.69,0-1.29-.51-1.39-1.21-.29-2.03-.73-4.11-1.31-6.18-.21-.75.23-1.53.98-1.74.75-.21,1.53.23,1.74.98.61,2.19,1.08,4.39,1.39,6.54.11.77-.43,1.49-1.2,1.6-.07,0-.13.01-.2.01Z"/>
      <path class="cls-1" d="M63.45,49.51c-.14,0-.28-.02-.42-.06-.74-.23-1.16-1.02-.92-1.77,1.94-6.18,2.53-13.5,2.54-13.57.05-.61.48-1.12,1.07-1.26.59-.14,1.21.11,1.53.63.13.2,3.09,5.03,5.13,12.29.21.75-.23,1.53-.98,1.74-.75.21-1.53-.23-1.74-.98-.84-3.01-1.87-5.61-2.76-7.57-.41,2.72-1.07,6.25-2.11,9.56-.19.6-.75.99-1.34.99Z"/>
      <path class="cls-1" d="M60.94,55.26c-.26,0-.52-.07-.76-.22-.66-.42-.85-1.29-.43-1.95.86-1.35,1.65-3.17,2.35-5.41.23-.74,1.03-1.15,1.77-.92.74.23,1.16,1.02.92,1.77-.78,2.48-1.67,4.52-2.67,6.08-.27.42-.72.65-1.19.65Z"/>
      <path class="cls-1" d="M1.41,56.21c-.78,0-1.41-.63-1.41-1.41,0-2.16.47-4.05,1.4-5.64.39-.67,1.26-.9,1.93-.5.67.39.9,1.26.5,1.93-.67,1.15-1.01,2.56-1.01,4.21,0,.78-.63,1.41-1.41,1.41Z"/>
      <path class="cls-1" d="M2.61,51.29c-.24,0-.49-.06-.71-.19-.67-.39-.9-1.26-.5-1.93,2.15-3.67,6.75-5.62,13.3-5.62.78,0,1.41.63,1.41,1.41s-.63,1.41-1.41,1.41c-3.83,0-8.83.73-10.87,4.22-.26.45-.73.7-1.22.7Z"/>
      <path class="cls-1" d="M6.01,81.76c-.18,0-.36-.03-.54-.11-.72-.3-1.06-1.12-.76-1.84l9.15-22.05c.05-.12.11-.23.19-.33,1.9-2.42,3.99-4.04,8.05-4.04h5.89c4.06,0,6.16,1.61,8.05,4.04.08.1.14.21.19.33l9.15,22.05c.3.72-.04,1.54-.76,1.84-.72.3-1.54-.04-1.84-.76l-9.07-21.87c-1.49-1.86-2.82-2.81-5.72-2.81h-5.89c-2.9,0-4.23.95-5.72,2.81l-9.07,21.87c-.23.54-.75.87-1.3.87Z"/>
    </g>
  </g>
</svg>