<?xml version="1.0" encoding="UTF-8"?>
<svg id="Capa_2" data-name="Capa 2" xmlns="http://www.w3.org/2000/svg" viewBox="0 0 76.89 75.96">
  <defs>
    <style>
      .cls-1 {
        fill: #5f249f;
      }
    </style>
  </defs>
  <g id="Capa_1-2" data-name="Capa 1">
    <g>
      <path class="cls-1" d="M63.89,75.96H13.01c-.69,0-1.29-.44-1.5-1.09L.08,39.47c-.16-.48-.07-1.01.23-1.41s.77-.65,1.28-.65h.17c6.56,0,12.89-1.45,18.79-4.31,8.99-4.35,17.12-4.29,17.9-4.27.77-.02,8.91-.09,17.91,4.27,5.9,2.86,12.23,4.31,18.79,4.31h.17c.51,0,.98.24,1.28.65.3.41.38.93.23,1.41l-11.42,35.39c-.21.65-.82,1.09-1.5,1.09ZM14.16,72.8h48.58l10.42-32.27c-6.33-.27-12.44-1.81-18.18-4.59-8.53-4.13-16.4-3.95-16.49-3.95-.03,0-.06,0-.09,0-.07,0-7.95-.17-16.48,3.95-5.74,2.78-11.85,4.32-18.19,4.59l10.42,32.27ZM48.07,55.82h-19.24c-.32,0-.63-.1-.89-.28l-10.58-7.27c-.57-.39-.82-1.11-.61-1.77.21-.66.82-1.11,1.51-1.11h.09c3.49,0,6.85-.77,9.98-2.29,5.01-2.43,9.58-2.43,10.12-2.41.55-.01,5.12-.01,10.13,2.41,3.14,1.52,6.5,2.29,9.98,2.29h.09c.69,0,1.3.45,1.51,1.11.2.66-.04,1.38-.61,1.77l-10.58,7.27c-.26.18-.57.28-.89.28ZM29.32,52.67h18.26l6.54-4.49c-2.39-.41-4.7-1.16-6.92-2.23-4.54-2.2-8.66-2.1-8.7-2.1-.03,0-.07,0-.1,0-.04,0-4.2-.08-8.7,2.1-2.22,1.08-4.53,1.82-6.92,2.23l6.54,4.49Z"/>
      <g>
        <path class="cls-1" d="M60.91,12.18c-.87,0-1.58-.71-1.58-1.58s.71-1.58,1.58-1.58c1.62,0,2.93-1.31,2.93-2.93s-1.31-2.93-2.93-2.93c-.02,0-.04,0-.06,0h-29.69c-.87,0-1.58-.71-1.58-1.58s.71-1.58,1.58-1.58h29.75s.05,0,.07,0c3.32.04,6.01,2.76,6.01,6.09s-2.73,6.09-6.09,6.09Z"/>
        <path class="cls-1" d="M60.91,21.19s-.04,0-.06,0H20.56s-.04,0-.06,0c-5.84,0-10.6-4.75-10.6-10.6S14.65,0,20.5,0c.87,0,1.58.71,1.58,1.58s-.71,1.58-1.58,1.58c-4.1,0-7.44,3.34-7.44,7.44s3.31,7.41,7.38,7.44c.02,0,.04,0,.06,0h40.42s.03,0,.05,0c1.59-.03,2.88-1.33,2.88-2.93s-1.31-2.93-2.93-2.93c-.02,0-.04,0-.06,0h-31.33c-.87,0-1.58-.71-1.58-1.58s.71-1.58,1.58-1.58h31.4s.05,0,.07,0c3.32.04,6.01,2.76,6.01,6.09s-2.73,6.09-6.09,6.09Z"/>
        <path class="cls-1" d="M48.69,12.18c-.87,0-1.58-.71-1.58-1.58V1.58C47.11.71,47.81,0,48.69,0s1.58.71,1.58,1.58v9.02c0,.87-.71,1.58-1.58,1.58Z"/>
      </g>
    </g>
  </g>
</svg>