<?xml version="1.0" encoding="UTF-8"?>
<svg id="Capa_2" data-name="Capa 2" xmlns="http://www.w3.org/2000/svg" viewBox="0 0 37.16 82.47">
  <defs>
    <style>
      .cls-1 {
        fill: #5f249f;
      }
    </style>
  </defs>
  <g id="Capa_1-2" data-name="Capa 1">
    <g>
      <path class="cls-1" d="M32.04,57.4H5.13c-2.83,0-5.13-2.3-5.13-5.13V14.2c0-.77.62-1.4,1.4-1.4s1.4.62,1.4,1.4v38.07c0,1.29,1.05,2.33,2.33,2.33h26.91c1.29,0,2.33-1.05,2.33-2.33V5.13c0-1.29-1.05-2.33-2.33-2.33H5.13c-1.29,0-2.33,1.05-2.33,2.33v1.65c0,.77-.62,1.4-1.4,1.4s-1.4-.62-1.4-1.4v-1.65C0,2.3,2.3,0,5.13,0h26.91c2.83,0,5.13,2.3,5.13,5.13v47.15c0,2.83-2.3,5.13-5.13,5.13Z"/>
      <path class="cls-1" d="M28.03,57.4H9.03c-.62,0-1.17-.41-1.34-1.01-.17-.6.08-1.24.61-1.57l2.18-1.36c.97-.6,2.08-.92,3.22-.92h9.66c1.14,0,2.26.32,3.22.92l2.18,1.36c.53.33.78.97.61,1.57-.17.6-.72,1.01-1.34,1.01Z"/>
      <path class="cls-1" d="M24.53,7.53h-11.89c-.77,0-1.4-.62-1.4-1.4s.62-1.4,1.4-1.4h11.89c.77,0,1.4.62,1.4,1.4s-.62,1.4-1.4,1.4Z"/>
      <path class="cls-1" d="M23.6,73.72h-10.03c-2.93,0-5.32-2.38-5.32-5.32,0-.77.62-1.4,1.4-1.4h17.87c.77,0,1.4.62,1.4,1.4,0,2.93-2.38,5.32-5.32,5.32ZM11.46,69.8c.45.68,1.23,1.13,2.1,1.13h10.03c.88,0,1.65-.45,2.1-1.13h-14.24Z"/>
      <path class="cls-1" d="M35.77,82.47h-17.19c-.77,0-1.4-.62-1.4-1.4v-7.94c0-.77.62-1.4,1.4-1.4s1.4.62,1.4,1.4v6.54h15.79c.77,0,1.4.62,1.4,1.4s-.62,1.4-1.4,1.4Z"/>
      <path class="cls-1" d="M14.12,69.8c-.77,0-1.4-.62-1.4-1.4v-7.34c0-.77.62-1.4,1.4-1.4s1.4.62,1.4,1.4v7.34c0,.77-.62,1.4-1.4,1.4Z"/>
      <path class="cls-1" d="M23.06,69.8c-.77,0-1.4-.62-1.4-1.4v-7.34c0-.77.62-1.4,1.4-1.4s1.4.62,1.4,1.4v7.34c0,.77-.62,1.4-1.4,1.4Z"/>
      <path class="cls-1" d="M13.42,47.45c-.19,0-.38-.04-.57-.12-.61-.27-.94-.94-.79-1.59l2.48-10.69-3.77-2.63c-.63-.44-.79-1.31-.34-1.94l12.05-17.25c.38-.55,1.1-.75,1.71-.48.61.27.94.94.79,1.59l-2.47,10.68,3.78,2.64c.3.21.51.54.57.9.06.36-.02.74-.23,1.04l-5.73,8.19s0,0,0,0l-6.34,9.06c-.27.38-.7.6-1.14.6ZM13.52,30.92l3.4,2.38c.47.33.69.9.56,1.46l-1.07,4.6,7.14-10.21-3.41-2.38c-.47-.33-.69-.9-.56-1.46l1.06-4.57-7.12,10.19ZM19.76,36.99h0,0Z"/>
    </g>
  </g>
</svg>