<?xml version="1.0" encoding="UTF-8"?>
<svg id="Capa_2" data-name="Capa 2" xmlns="http://www.w3.org/2000/svg" viewBox="0 0 65.95 81.79">
  <defs>
    <style>
      .cls-1 {
        fill: #5f249f;
      }
    </style>
  </defs>
  <g id="Capa_1-2" data-name="Capa 1">
    <g>
      <path class="cls-1" d="M32.97,70.38c-14.67,0-26.61-11.94-26.61-26.61s11.94-26.61,26.61-26.61,26.61,11.94,26.61,26.61-11.94,26.61-26.61,26.61ZM32.97,19.87c-13.18,0-23.9,10.72-23.9,23.9s10.72,23.9,23.9,23.9,23.9-10.72,23.9-23.9-10.72-23.9-23.9-23.9Z"/>
      <path class="cls-1" d="M59.32,77.84H6.63c-3.66,0-6.63-2.97-6.63-6.63V17.49c0-.75.61-1.35,1.35-1.35h.07c5.68,0,11.12-1.24,16.19-3.7,7.71-3.74,14.69-3.68,15.36-3.66.67-.01,7.64-.08,15.36,3.66,4.68,2.27,9.69,3.51,14.91,3.68V6.63c0-2.16-1.76-3.92-3.92-3.92H6.63c-2.16,0-3.92,1.76-3.92,3.92v3.51c0,.75-.61,1.35-1.35,1.35s-1.35-.61-1.35-1.35v-3.51C0,2.97,2.97,0,6.63,0h52.69c3.66,0,6.63,2.97,6.63,6.63v64.58c0,3.66-2.97,6.63-6.63,6.63ZM2.71,71.21c0,2.16,1.76,3.92,3.92,3.92h52.69c2.16,0,3.92-1.76,3.92-3.92V18.82c-5.63-.17-11.03-1.5-16.09-3.95-7.34-3.56-14.07-3.39-14.13-3.39-.03,0-.06,0-.08,0-.07,0-6.82-.15-14.13,3.39-5.06,2.45-10.46,3.78-16.09,3.95v52.39Z"/>
      <path class="cls-1" d="M51.48,81.79H14.46c-1.87,0-3.65-.7-5.02-1.97l-2.51-2.33c-.55-.51-.58-1.37-.07-1.91.51-.55,1.37-.58,1.91-.07l2.51,2.33c.87.8,1.99,1.25,3.17,1.25h37.02c1.18,0,2.31-.44,3.17-1.25l2.51-2.33c.55-.51,1.4-.48,1.91.07.51.55.48,1.4-.07,1.91l-2.51,2.33c-1.37,1.27-3.15,1.97-5.02,1.97Z"/>
      <path class="cls-1" d="M59.86,10.26h-9.43c-.75,0-1.35-.61-1.35-1.35s.61-1.35,1.35-1.35h9.43c.75,0,1.35.61,1.35,1.35s-.61,1.35-1.35,1.35Z"/>
      <path class="cls-1" d="M9.37,10.26h-3.12c-.75,0-1.35-.61-1.35-1.35s.61-1.35,1.35-1.35h3.12c.75,0,1.35.61,1.35,1.35s-.61,1.35-1.35,1.35Z"/>
      <path class="cls-1" d="M32.97,49.79c-3.37,0-6.11-2.74-6.11-6.11,0-.12,0-.24.01-.35.16-3.21,2.84-5.76,6.1-5.76,2.62,0,4.95,1.67,5.79,4.15.12.37.22.75.27,1.13.03.24.05.53.05.83,0,2.69-1.73,5.04-4.31,5.84-.58.18-1.19.27-1.81.27ZM32.97,40.28c-1.82,0-3.31,1.42-3.4,3.23,0,.08,0,.13,0,.18,0,1.87,1.53,3.4,3.4,3.4.35,0,.69-.05,1.01-.15,1.43-.44,2.4-1.75,2.4-3.25,0-.17-.02-.33-.03-.5-.02-.17-.07-.38-.14-.59-.47-1.39-1.77-2.32-3.23-2.32Z"/>
      <path class="cls-1" d="M28.22,44.8c-.44,0-.86-.22-1.12-.59-1.59-2.34-2.42-5.07-2.42-7.89,0-6.61,4.68-12.38,11.13-13.73.03,0,.05-.01.08-.02h0c.74-.15,1.48-.24,2.2-.26.05,0,.1,0,.15,0,3.29.26,5.86,3.04,5.86,6.35,0,1.83-.79,3.56-2.16,4.77-.04.04-.09.08-.14.12,0,0-.05.04-.06.05-1.97,1.67-3.1,4.11-3.1,6.68,0,.57.05,1.12.16,1.63.14.7-.28,1.39-.97,1.58-.69.19-1.41-.2-1.64-.87-.47-1.38-1.76-2.31-3.22-2.31-1.82,0-3.31,1.42-3.4,3.23-.03.58-.43,1.08-.99,1.24-.12.03-.24.05-.37.05ZM36.48,25.2s-.05.01-.07.02c-5.23,1.08-9.02,5.74-9.02,11.09,0,1.3.22,2.57.64,3.78,1.11-1.53,2.92-2.51,4.94-2.51,1.12,0,2.19.31,3.12.85.43-2.67,1.8-5.12,3.9-6.91l.06-.05s.06-.06.09-.08c.8-.69,1.26-1.7,1.26-2.75,0-1.87-1.44-3.46-3.29-3.64-.53.02-1.07.09-1.62.2Z"/>
      <path class="cls-1" d="M44.54,60.74c-.9,0-1.82-.19-2.68-.6-1.65-.78-2.89-2.23-3.4-3.98-.02-.06-.04-.12-.05-.18,0,0-.02-.06-.02-.07-.68-2.49-2.4-4.55-4.73-5.64-.52-.24-1.03-.43-1.54-.55-.69-.17-1.14-.85-1.01-1.55.12-.7.77-1.19,1.49-1.11,1.45.17,2.84-.61,3.46-1.94.77-1.64.12-3.6-1.48-4.45-.51-.27-.8-.84-.7-1.42s.55-1.02,1.12-1.11c2.79-.44,5.62-.04,8.18,1.16,5.98,2.81,9.22,9.5,7.7,15.91,0,.02,0,.05-.02.07h0c-.18.73-.41,1.44-.69,2.1-.02.05-.04.09-.07.14-1.16,2.04-3.33,3.21-5.55,3.21ZM36.41,48.74c2.23,1.53,3.87,3.81,4.6,6.47l.02.07s.02.08.03.11c.29,1.02,1,1.86,1.96,2.31,1.69.8,3.74.17,4.69-1.43.2-.49.38-1.01.51-1.55,0-.02,0-.05.01-.07,1.24-5.19-1.37-10.61-6.21-12.88-1.18-.55-2.42-.89-3.69-1.02.91,1.66,1.03,3.71.17,5.54-.48,1.02-1.21,1.86-2.1,2.46Z"/>
      <path class="cls-1" d="M23.63,58.16c-3,0-6-.95-8.51-2.87-.02-.02-.04-.03-.07-.05h0c-.59-.46-1.14-.96-1.63-1.49-.03-.04-.07-.08-.1-.12-1.95-2.66-1.51-6.43.99-8.58h0c1.39-1.19,3.22-1.73,5.03-1.47.06,0,.12.01.18.02.01,0,.06,0,.07.01,2.55.4,5.13-.33,7.08-2.01.43-.37.81-.77,1.13-1.18.44-.57,1.24-.69,1.83-.29.59.4.77,1.19.4,1.81-.74,1.26-.6,2.85.35,3.95,1.18,1.38,3.23,1.59,4.66.47.46-.36,1.1-.38,1.58-.06s.71.92.56,1.48c-.74,2.73-2.26,5.14-4.41,6.98-2.62,2.25-5.89,3.38-9.16,3.38ZM16.67,53.07s.04.03.06.04c4.23,3.26,10.24,3.1,14.3-.39.98-.85,1.81-1.84,2.44-2.95-1.88.15-3.81-.57-5.13-2.11-.73-.85-1.2-1.86-1.38-2.92-2.31,1.41-5.06,1.97-7.78,1.54h-.07s-.08-.02-.12-.03c-1.05-.15-2.11.15-2.91.84h0c-1.42,1.22-1.68,3.35-.61,4.87.36.39.77.76,1.2,1.1Z"/>
    </g>
  </g>
</svg>