<?xml version="1.0" encoding="UTF-8"?>
<svg id="Capa_2" data-name="Capa 2" xmlns="http://www.w3.org/2000/svg" viewBox="0 0 65.95 81.79">
  <defs>
    <style>
      .cls-1 {
        fill: #5f249f;
      }
    </style>
  </defs>
  <g id="Capa_1-2" data-name="Capa 1">
    <g>
      <path class="cls-1" d="M32.97,70.38c-14.67,0-26.61-11.94-26.61-26.61s11.94-26.61,26.61-26.61,26.61,11.94,26.61,26.61-11.94,26.61-26.61,26.61ZM32.97,19.87c-13.18,0-23.9,10.72-23.9,23.9s10.72,23.9,23.9,23.9,23.9-10.72,23.9-23.9-10.72-23.9-23.9-23.9Z"/>
      <path class="cls-1" d="M59.32,77.84H6.63c-3.66,0-6.63-2.97-6.63-6.63V17.49c0-.75.61-1.35,1.35-1.35h.07c5.68,0,11.12-1.25,16.19-3.7,7.71-3.74,14.69-3.68,15.36-3.66.67-.01,7.64-.07,15.36,3.66,4.68,2.27,9.69,3.51,14.91,3.68V6.63c0-2.16-1.76-3.92-3.92-3.92H6.63c-2.16,0-3.92,1.76-3.92,3.92v3.51c0,.75-.61,1.35-1.35,1.35s-1.35-.61-1.35-1.35v-3.51C0,2.97,2.97,0,6.63,0h52.69c3.66,0,6.63,2.97,6.63,6.63v64.58c0,3.66-2.97,6.63-6.63,6.63ZM2.71,71.21c0,2.16,1.76,3.92,3.92,3.92h52.69c2.16,0,3.92-1.76,3.92-3.92V18.82c-5.63-.17-11.03-1.5-16.09-3.95-7.35-3.56-14.07-3.39-14.13-3.39-.03,0-.06,0-.08,0-.06,0-6.82-.15-14.13,3.39-5.06,2.45-10.46,3.78-16.09,3.95v52.39Z"/>
      <path class="cls-1" d="M51.48,81.79H14.46c-1.87,0-3.65-.7-5.02-1.97l-2.51-2.33c-.55-.51-.58-1.37-.07-1.91.51-.55,1.37-.58,1.91-.07l2.51,2.33c.87.8,1.99,1.25,3.17,1.25h37.02c1.18,0,2.31-.44,3.17-1.25l2.51-2.33c.55-.51,1.41-.48,1.91.07.51.55.48,1.4-.07,1.91l-2.51,2.33c-1.37,1.27-3.15,1.97-5.02,1.97Z"/>
      <path class="cls-1" d="M32.97,57.18c-3.74,0-6.86-3.04-6.94-6.78-.02-.75.57-1.37,1.32-1.38.73-.03,1.37.57,1.38,1.32.05,2.28,1.95,4.14,4.23,4.14s4.18-1.86,4.23-4.14c.02-.75.63-1.35,1.38-1.32.75.02,1.34.64,1.32,1.38-.09,3.74-3.2,6.78-6.94,6.78Z"/>
      <path class="cls-1" d="M41.95,44.31c-.75,0-1.35-.61-1.35-1.35v-7.41c0-.75.61-1.35,1.35-1.35s1.35.61,1.35,1.35v7.41c0,.75-.61,1.35-1.35,1.35Z"/>
      <path class="cls-1" d="M20.41,44.09c-.48,0-.94-.25-1.19-.7-.36-.66-.12-1.48.54-1.84l4.2-2.3-4.2-2.3c-.66-.36-.9-1.18-.54-1.84s1.18-.9,1.84-.54l6.37,3.49c.43.24.7.69.7,1.19s-.27.95-.7,1.19l-6.37,3.49c-.21.11-.43.17-.65.17Z"/>
      <path class="cls-1" d="M59.86,10.26h-9.43c-.75,0-1.35-.61-1.35-1.35s.61-1.35,1.35-1.35h9.43c.75,0,1.35.61,1.35,1.35s-.61,1.35-1.35,1.35Z"/>
      <path class="cls-1" d="M9.37,10.26h-3.12c-.75,0-1.35-.61-1.35-1.35s.61-1.35,1.35-1.35h3.12c.75,0,1.35.61,1.35,1.35s-.61,1.35-1.35,1.35Z"/>
    </g>
  </g>
</svg>