<?xml version="1.0" encoding="UTF-8"?>
<svg id="Capa_2" data-name="Capa 2" xmlns="http://www.w3.org/2000/svg" viewBox="0 0 76 69.52">
  <defs>
    <style>
      .cls-1 {
        fill: #5f249f;
      }
    </style>
  </defs>
  <g id="Capa_1-2" data-name="Capa 1">
    <g>
      <path class="cls-1" d="M1.35,69.52c-.75,0-1.35-.61-1.35-1.35v-11.91c0-.75.61-1.35,1.35-1.35s1.35.61,1.35,1.35v10.46c4.66-.66,8.25-4.67,8.25-9.51s-3.59-8.85-8.25-9.51v1.23c0,.75-.61,1.35-1.35,1.35s-1.35-.61-1.35-1.35v-2.68c0-.75.61-1.35,1.35-1.35,6.79,0,12.32,5.52,12.32,12.31s-5.53,12.31-12.32,12.31Z"/>
      <path class="cls-1" d="M12.4,58.78c-.54,0-1.05-.33-1.26-.86-.27-.7.07-1.48.77-1.75,7.97-3.1,13.12-10.64,13.12-19.2,0-.75.61-1.35,1.35-1.35s1.35.61,1.35,1.35c0,9.68-5.83,18.21-14.85,21.72-.16.06-.33.09-.49.09Z"/>
      <path class="cls-1" d="M59.01,40.22c-.39,0-.79-.04-1.2-.13L8.71,29.57c-1.49-.32-2.77-1.2-3.6-2.48-.83-1.28-1.11-2.81-.79-4.3l1.98-9.24c.16-.73.88-1.2,1.61-1.04l20.02,4.29c1.49.32,2.77,1.2,3.6,2.48.83,1.28,1.11,2.81.79,4.3l-.78,3.65c-.16.73-.88,1.2-1.61,1.04-.73-.16-1.2-.88-1.04-1.61l.78-3.65c.17-.79.02-1.59-.41-2.26-.44-.67-1.11-1.14-1.89-1.3l-18.7-4-1.7,7.92c-.17.78-.02,1.58.42,2.26.44.67,1.11,1.14,1.89,1.3l49.11,10.52c1.62.35,3.22-.69,3.57-2.31l3.92-18.28c.17-.78.02-1.59-.41-2.26-.44-.67-1.11-1.14-1.89-1.3L14.45,2.78c-.78-.17-1.59-.02-2.26.41-.67.44-1.14,1.11-1.3,1.89l-.41,1.92c-.16.73-.87,1.2-1.61,1.04-.73-.16-1.2-.88-1.04-1.61l.41-1.92c.32-1.49,1.2-2.77,2.48-3.6C12,.09,13.52-.19,15.02.13l49.11,10.52c1.49.32,2.77,1.2,3.6,2.48.83,1.28,1.11,2.81.79,4.3l-3.92,18.28c-.57,2.68-2.95,4.52-5.58,4.52Z"/>
      <path class="cls-1" d="M49.46,43.07c-.97,0-1.95-.1-2.92-.31l-28.83-6.18c-3.5-.75-6.54-2.79-8.56-5.75l-1.3-1.91c-.42-.62-.26-1.46.36-1.88.62-.42,1.46-.26,1.88.36l1.3,1.91c1.62,2.38,4.07,4.02,6.89,4.63l28.83,6.18c2.82.6,5.72.11,8.18-1.4l1.99-1.22c.64-.39,1.47-.19,1.86.45.39.64.19,1.47-.45,1.86l-1.99,1.22c-2.21,1.35-4.7,2.05-7.24,2.05Z"/>
      <path class="cls-1" d="M70.18,38.36c-.54,0-1.07-.2-1.48-.57l-5.55-5.02c-.36-.32-.52-.82-.42-1.29l2.36-10.98c.1-.47.45-.86.91-1l7.12-2.3c.76-.24,1.56-.07,2.16.46.59.53.85,1.32.68,2.1,0,0,0,0,0,0l-3.61,16.85c-.16.77-.71,1.39-1.47,1.64-.22.07-.45.11-.68.11ZM69.69,36.05s0,0,0,0h0ZM65.54,31.29l4.33,3.91,3.25-15.16-5.55,1.8-2.03,9.45ZM74.63,19.48h0,0Z"/>
    </g>
  </g>
</svg>