<svg xmlns="http://www.w3.org/2000/svg" viewBox="0 0 100 100">
  <defs>
    <linearGradient id="g" x1="0" y1="0" x2="1" y2="1">
      <stop offset="0" stop-color="#5B2D8F"/>
      <stop offset=".5" stop-color="#3B6EB5"/>
      <stop offset="1" stop-color="#19BFB0"/>
    </linearGradient>
  </defs>
  <circle cx="50" cy="50" r="48" fill="url(#g)"/>
  <g fill="#fff">
    <path d="M50 14c19.9 0 36 16.1 36 36 0 8.2-2.7 15.8-7.4 21.8 1.8-4.2 2.3-9 1.1-13.9C76.2 44.5 62.8 36.6 49.4 40.1c-2.7.7-5.2 1.8-7.4 3.3 2.7-7.4 1.3-16-4.6-22-5-5-10.5-7-15.9-6.1C28 14.5 42.2 14 50 14z"/>
    <path d="M50 86c-19.9 0-36-16.1-36-36 0-8.2 2.7-15.8 7.4-21.8-1.8 4.2-2.3 9-1.1 13.9C23.8 55.5 37.2 63.4 50.6 59.9c2.7-.7 5.2-1.8 7.4-3.3-2.7 7.4-1.3 16 4.6 22 5 5 10.5 7 15.9 6.1C72 85.5 57.8 86 50 86z"/>
    <circle cx="50" cy="50" r="10.5"/>
  </g>
  <circle cx="50" cy="50" r="5" fill="url(#g)"/>
</svg>
